<svg xmlns="http://www.w3.org/2000/svg" width="250" height="250" viewBox="0 0 250 250">
<!-- SVG created with Arrow, by QuiverAI (https://quiver.ai) -->
  <path d="m230.4 5.61h-210.8c-8.81 0-14.15 8.2-14.15 15.62v207.5c0 8.42 6.77 15.62 14.6 15.62h210.2c8.52 0 14.37-7.61 14.37-15.66v-208.1c0-8.45-6.27-15.01-14.16-15.01z" fill="#1A1D22"/>
  <path d="m168.1 55.13c0.77 2.51 1.26 5.2 1.14 8.14 16.91 12.72 27.62 33.16 27.62 57.51 0 35.15-25.61 66.71-63.66 72.13l-0.02 4.9c39.47-4.5 67.87-37.16 67.87-77.03 0-26.07-12.89-49.62-32.95-65.65z" fill="#B2884F"/>
  <path d="m112.3 192c-35.29-4.22-59.43-34.81-59.43-71.19 0-25.17 12.77-46.69 35.98-63.07l1.07-6.92c-25.91 14.92-41.84 39.89-41.84 69.99 0 37.03 26.69 72.13 64.22 76.31v-5.12z" fill="#B2884F"/>
  <path d="m115.7 184.8v28.93h13.62v-28.79l-0.1-0.81-1.07 0.23-2.63 0.34-0.82-0.34-1.65-1.38-1.92-1.56-1.73-0.31-2.51 0.52-1.19 1.09v2.08z" fill="#B2884F"/>
  <path d="m115.9 168.6v45h5.48v-33.91l-2.15-3.45-0.98-5.06-0.15-2.58h-2.2z" fill="#FEFEFE"/>
  <path d="m117.6 171.4v42.21h2.62v-31.68l-1.02-2.75-1.03-3.45-0.57-4.33z" fill="#B2884F"/>
  <path d="m127.7 185.2v28.46h1.79v-28.86l-1.79 0.4z" fill="#B2884F"/>
  <path d="m127.3 160.9-2.99 17.12 1.82 4.98 8.63-0.62 5.05-11.31 1.22-9.96-13.73-0.21z" fill="#B2884F"/>
  <path d="m109.3 154.2-0.39 18.37c-0.09 4.38 2.06 7.1 3.79 7.1l0.75-11.28 7.66 0.19 0.57 9.29 3.22 4.8 3.54-0.52-0.26-4.58 0.72-20.45-1.63-2.92h-17.97z" fill="#FEFEFE"/>
  <path d="m110.7 156.1-0.49 14.72 1.68 0.21 0.8-5.28 12.2 0.31 0.92-4.89-0.34-4.67-5.48-0.4h-9.29z" fill="#B2884F"/>
  <path d="m147 41.6c5.48 2.82 16.96 9.56 17.67 16.62s0.57 9.24 0.31 9.75l-2.02 0.34-6.85-2.52-1.13 4.22 8.92 3.22 0.06 2.82-1 1.73-8.39-2.35-0.81 3.29 9.2 2.89-0.52 3.8-9.86-1.98-1.13 4.28 9.66 3.7-0.88 10.75-3.55 1.47-0.82 37.24c-0.2 9.02-6.83 16.84-15.91 16.84h-11.56l0.31-2.62 7.41-0.85c6.73-0.75 10.68-9.33 10.58-14.74l-0.52-41.56c-0.1-5.22 2.99-9.45 5.89-10.33l1.24-31.53c0.2-5.12-2.31-11.15-6.3-14.48z" fill="#B2884F"/>
  <path d="m147.1 42.11c4.41 2.82 15.81 9.05 17.11 18.81 0.61 4.66 0.31 5.99-0.61 6.13-0.61-3.94-2.44-13.34-8.67-18.95-2.92-2.76-5.98-4.81-7.83-5.99z" fill="#FEFEFE"/>
  <path d="m149.5 47.89c2.25 4.23 1.73 11.04 0.75 17.18l-3.26 21.98 2.3-0.61c2.97-0.82 8.66 1.84 10.1 4.97l0.83-1.29-0.21-2.82-7.65-2.24 0.31-1.94 9.15 2.29 0.61-2.39-9.76-3.32 0.62-3.55 9.97 2.57 0.63-2.67-9.66-3.64 1.02-5.36 8.7 2.86 0.51-1.94-1.82-3.06-7.9-1.83 1.42-9.37c-0.91-4.99-4.41-8.68-6.66-10.58l-2.36-1.53c0.71 0.71 1.33 3.23 2.36 6.29z" fill="#1A1D22"/>
  <path d="m159 98.75-0.92 3.96 1.03-0.41 0.71-2.14-0.82-1.41z" fill="#1A1D22"/>
  <path d="m151.7 89.1c-5.38 0-7.52 4.8-7.52 9.14v41.77c0 8.96-6.38 16.05-13.03 16.05h-4.1v1.65h9c8.75 0 12.16-9.97 12.16-14.68v-45.3c0-4.24 1.73-7.1 4.92-7.1 2.77 0 4.57 2.76 4.77 4.7l1.03-2.35c-0.82-2.14-2.92-3.88-7.23-3.88z" fill="#FEFEFE"/>
  <path d="m154 92.12c-2.99 0-4.33 2.86-4.33 5.31 0 2.44 1.76 5.79 4.33 5.79 2.56 0 3.94-3.25 3.94-5.79 0-2.55-1.48-5.31-3.94-5.31z" fill="#1A1D22"/>
  <path d="m153.9 93.39c-1.96 0-2.88 2.25-2.88 3.93s1.02 4.03 2.88 4.03c1.85 0 2.66-2.3 2.66-4.03s-1.02-3.93-2.66-3.93z" fill="#D7B58E"/>
  <path d="m137.7 39.76c-8.45 0-13.53 3.06-14.77 10.32-0.41 2.55-3.76 1.94-4.07-0.3-0.61-4.65 3.35-12.26 11-13.49-2.66-0.61-8.15-1.12-10.81 0.82-3.26 2.34-6.95 6.7-7.26 10.06-0.41 3.84-3.85 2.91-4.05 0.93-0.31-3.07 2.66-9.87 7.94-12.22-3.89-0.4-6.75 0.52-9.41 3.27-2.15 2.25-4.08 5.57-4.49 8.12-0.51 3.02-3.67 2.2-3.57 0.52 0.21-2.86 1.64-5.68 3.06-7.21-5.18 2.14-8.04 10.63-8.45 14.48l-9.09 66.95c-1.03 6.04 0.92 12.74 3.98 16.29-1.02-2.96-1.22-7.19-0.61-10.55 0.51-2.65 3.96-2.04 3.76 0.3-0.92 9.13 2.98 16.75 10.1 19.29-4.87-3.55-7.02-8.53-6.61-17.72 0.1-2.86 4.47-2.39 4.37 0.37-0.51 9.85 3.17 16.94 12.25 20.1l9.03 0.62c11.97 0 20.4-12.82 20.4-28.49v-23.88c0-5.62 2.86-11.24 7.51-11.24l2.96-29.19c0.83-8.79-3.47-18.15-13.17-18.15z" fill="#FEFEFE"/>
  <path d="m137.7 39.76c-2.66 0-5.01 0.41-7.06 1.33-3.23 1.43-6.58 4.04-7.61 8.99-0.61 3.06-4.26 1.94-4.26-0.3 0-3.63 2.53-10.94 11.4-13.28-2.87-0.72-6.93-0.51-9.49 1.32-2.77 1.94-5.63 5.88-6.24 9.66-0.62 3.53-4.36 2.4-4.16 0.41 0.41-3.57 2.77-9.05 7.63-12.01-4.09-0.2-7.15 1.54-9.4 3.98-1.95 2.15-3.38 5.07-3.99 7.83-0.72 3.11-4.06 1.78-3.75 0.1 0.61-3.17 2.14-6.09 3.96-8.13-2.95 1.02-5.6 4.76-6.72 10.94-0.72 4.25 0.1 5.58 2.55 5.58h4.58c2.56 0 2.46 3.84 0.1 3.84h-11.5l-0.92 3.74h10.58c2.35 0 2.35 3.45-0.1 3.45h-11.51l-0.72 3.26h11.22c2.45 0 2.45 3.35-0.1 3.35h-12.04l-0.72 3.55h11.02c2.46 0 2.26 3.35-0.2 3.35h-11.43l-0.61 3.42h10.21c1.83 0 1.63 2.96-0.72 2.96h-9.99l-0.61 3.53h9.69c2.34 0 2.34 3.47-0.11 3.47h-10.19l-0.62 3.63h11.32c2.35 0 2.25 3.36-0.1 3.36h-11.52l-0.71 3.74h11.42c2.44 0 2.34 3.45-0.11 3.45h-11.52l-0.72 3.94h12.14c2.45 0 2.45 3.45-0.1 3.45h-12.14l-0.51 3.06 12.75 0.51c2.45 0.1 2.35 3.55-0.21 3.45l-11.42-0.61c-1.53 5.05-0.51 11.95 2.66 16.22-1.23-3.46-0.72-7.19-0.41-10.15 0.41-3.16 3.86-2.14 3.56 0.11-1.43 9.43 2.77 16.75 10.71 19.08-4.17-2.95-6.62-7.61-6.21-17.1 0.1-2.96 4.28-2.49 4.18-0.15-0.51 9.64 3.16 17.05 12.24 20l8.83 0.62c5.48 0 10.33-3.94 13.59-9.98-5.88 3.66-10.56-1.71-15.04-3.55-3.9-1.53-3.39-5.47-3.49-7.4-0.2-2.86-4.19-2.03-4.29 0.31-0.51 8.72 4.26 14.61 14.92 17.05-2.56 1.32-4.19 2.65-8.09 1.63-8.16-2.35-14.3-7.62-14.6-18.17-0.1-3.37 4.49-3.27 4.6-0.51 0.1 4.04 0.3 8.11 3.68 11.06 1.13-2.44 1.43-6 1.33-8.96-0.1-3.33 4.17-3.02 4.47-0.67 0.52 3.73 1.24 7.39 7.89 10.55 4.58-4.99 7.44-12.39 7.44-20.97v-23.37c0-5.51 3.55-10.63 7.99-10.63l7.4-30c1.13-6.09-2.04-17.34-10.1-17.34z" fill="#B2884F"/>
  <path d="m114.8 55.98c-3.16-0.1-3.27 4.13-0.21 4.23 9.01 0.31 14.71 0 28.72 4.25 3.16 1.02 3.57-3.73 0.51-4.55-10.69-3.12-16.92-3.52-29.02-3.93z" fill="#1A1D22"/>
  <path d="m112.6 65.68c-3.17-0.1-3.27 4.13-0.21 4.23 9 0.31 15.31 0.51 29.72 4.36 3.16 0.92 3.36-3.95 0.2-4.76-10.7-3.12-17.62-3.42-29.71-3.83z" fill="#1A1D22"/>
  <path d="m112.1 73.72c-3.59-0.31-3.79 4.59-0.51 4.9 8.41 0.71 15.26 1.22 28.19 5.06 3.17 1.02 4.09-3.94 0.83-4.86-10.28-3.16-17.27-4.18-28.51-5.1z" fill="#1A1D22"/>
  <path d="m111.2 83.22c-2.05-0.2-2.15 2.56-0.11 2.96 8.1 1.53 15.83 2.04 27.24 5.3 2.66 0.82 3.37-3.56 0.51-4.38-9.11-2.65-17.73-3.06-27.64-3.88z" fill="#1A1D22"/>
  <path d="m112.1 91.61c-3.17-0.3-3.99 4.03-0.92 4.23 7.99 0.61 15.26 1.43 26.21 4.08 3.16 0.82 3.68-3.67 0.51-4.38-9.47-2.46-15.17-3.02-25.8-3.93z" fill="#1A1D22"/>
  <path d="m107.8 101.1c-2.76-0.31-3.07 3.64-0.31 3.94 8.71 0.92 15.54 1.64 28.77 4.7 2.66 0.61 3.07-3.62 0.21-4.24-10.28-2.55-17.71-3.27-28.67-4.4z" fill="#1A1D22"/>
  <path d="m106.4 109.2c-2.97-0.41-3.07 4.12-0.2 4.43 9.4 1.02 16.55 1.84 28.56 6.51 2.97 1.23 3.48-3.53 0.41-4.65-10.17-3.74-17.81-4.87-28.77-6.29z" fill="#1A1D22"/>
  <path d="m105.7 117.7c-2.96-0.41-3.36 3.93-0.41 4.34 8.58 1.13 13.93 1.23 28.24 4.97 3.07 0.92 3.89-3.84 0.73-4.76-10.26-3.12-17.6-3.22-28.56-4.55z" fill="#1A1D22"/>
  <path d="m104.7 86.08c-2.75 0-3.15 2.86-3.15 3.68 0 1.43 1.12 3.37 3.05 3.37 2.46 0 3.27-2.35 3.27-3.68 0-1.53-1.02-3.37-3.17-3.37z" fill="#1A1D22"/>
  <path d="m133.9 167.3c-4.49 0-6.44 4.43-6.44 7.18 0 3.26 2.36 5.5 5.32 5.5 3.89 0 5.43-4.76 5.43-7.31 0-3.06-1.64-5.37-4.31-5.37z" fill="#1A1D22"/>
  <path d="m133.9 169.2c-2.75 0-4.08 3.84-4.08 5.78 0 1.33 0.61 2.75 1.74 3.37l3.68-8.74c-0.41-0.3-0.82-0.41-1.34-0.41z" fill="#B2884F"/>
  <path d="m93.13 146c2.35 5.94 6.11 10.45 14.58 10.45l0.3-2.65c-6.12-0.51-11.31-3.26-14.88-7.8z" fill="#B2884F"/>
</svg>